<svg width="50" height="50" viewBox="0 0 50 50" fill="none" xmlns="http://www.w3.org/2000/svg">
<g clip-path="url(#clip0)">
<path d="M24.7791 50.0005C24.5062 50.0005 24.2395 49.8922 24.0416 49.6964C23.7957 49.4505 23.6874 49.0964 23.7562 48.7568L25.2291 41.3922C25.2707 41.188 25.3666 41.0026 25.5145 40.8589L41.7187 24.6547C42.9353 23.438 44.9207 23.438 46.1374 24.6547L49.0832 27.6005C50.302 28.8193 50.302 30.8005 49.0832 32.0193L32.8791 48.2234C32.7353 48.3693 32.5499 48.4672 32.3457 48.5089L24.9812 49.9818C24.9145 49.9943 24.8457 50.0005 24.7791 50.0005ZM27.2124 42.1068L26.1082 47.6297L31.6312 46.5255L47.6124 30.5443C48.0187 30.138 48.0187 29.4776 47.6124 29.0714L44.6666 26.1255C44.2603 25.7193 43.5999 25.7193 43.1937 26.1255L27.2124 42.1068ZM32.1437 47.4859H32.1645H32.1437Z" fill="#FF0000"/>
<path d="M19.7917 43.75H5.20833C2.33542 43.75 0 41.4146 0 38.5417V11.4583C0 8.58542 2.33542 6.25 5.20833 6.25H9.375C9.95 6.25 10.4167 6.71667 10.4167 7.29167C10.4167 7.86667 9.95 8.33333 9.375 8.33333H5.20833C3.48542 8.33333 2.08333 9.73542 2.08333 11.4583V38.5417C2.08333 40.2646 3.48542 41.6667 5.20833 41.6667H19.7917C20.3667 41.6667 20.8333 42.1333 20.8333 42.7083C20.8333 43.2833 20.3667 43.75 19.7917 43.75Z" fill="#FF0000"/>
<path d="M34.375 25C33.8 25 33.3333 24.5333 33.3333 23.9583V11.4583C33.3333 9.73542 31.9312 8.33333 30.2083 8.33333H26.0417C25.4667 8.33333 25 7.86667 25 7.29167C25 6.71667 25.4667 6.25 26.0417 6.25H30.2083C33.0812 6.25 35.4167 8.58542 35.4167 11.4583V23.9583C35.4167 24.5333 34.95 25 34.375 25Z" fill="#FF0000"/>
<path d="M23.9583 12.5H11.4583C9.73534 12.5 8.33325 11.0979 8.33325 9.375V5.20833C8.33325 4.63333 8.79992 4.16667 9.37492 4.16667H12.6041C13.0874 1.79167 15.1937 0 17.7083 0C20.2228 0 22.3291 1.79167 22.8124 4.16667H26.0416C26.6166 4.16667 27.0833 4.63333 27.0833 5.20833V9.375C27.0833 11.0979 25.6812 12.5 23.9583 12.5ZM10.4166 6.25V9.375C10.4166 9.94792 10.8853 10.4167 11.4583 10.4167H23.9583C24.5312 10.4167 24.9999 9.94792 24.9999 9.375V6.25H21.8749C21.2999 6.25 20.8333 5.78333 20.8333 5.20833C20.8333 3.48542 19.4312 2.08333 17.7083 2.08333C15.9853 2.08333 14.5833 3.48542 14.5833 5.20833C14.5833 5.78333 14.1166 6.25 13.5416 6.25H10.4166Z" fill="#FF0000"/>
<path d="M28.125 18.7493H7.29167C6.71667 18.7493 6.25 18.2827 6.25 17.7077C6.25 17.1327 6.71667 16.666 7.29167 16.666H28.125C28.7 16.666 29.1667 17.1327 29.1667 17.7077C29.1667 18.2827 28.7 18.7493 28.125 18.7493Z" fill="#FF0000"/>
<path d="M28.125 24.9994H7.29167C6.71667 24.9994 6.25 24.5327 6.25 23.9577C6.25 23.3827 6.71667 22.916 7.29167 22.916H28.125C28.7 22.916 29.1667 23.3827 29.1667 23.9577C29.1667 24.5327 28.7 24.9994 28.125 24.9994Z" fill="#FF0000"/>
<path d="M28.125 31.2493H7.29167C6.71667 31.2493 6.25 30.7827 6.25 30.2077C6.25 29.6327 6.71667 29.166 7.29167 29.166H28.125C28.7 29.166 29.1667 29.6327 29.1667 30.2077C29.1667 30.7827 28.7 31.2493 28.125 31.2493Z" fill="#FF0000"/>
</g>
<defs>
<clipPath id="clip0">
<rect width="50" height="50" fill="white"/>
</clipPath>
</defs>
</svg>
