<svg width="40" height="40" viewBox="0 0 40 40" fill="none" xmlns="http://www.w3.org/2000/svg">
<g clip-path="url(#clip0)">
<path d="M37.4999 9.16699H33.3333V10.8336H37.4999C37.9601 10.8336 38.3333 11.2068 38.3333 11.667V31.667C38.3333 32.1272 37.9601 32.5004 37.4999 32.5004H25.8333C25.6122 32.5004 25.4004 32.5882 25.2441 32.7445L23.3333 34.6554V33.3337C23.3333 32.8735 22.9601 32.5004 22.4999 32.5004H10.8333C10.373 32.5004 9.99989 32.1272 9.99989 31.667V29.167H8.33325V31.667C8.33325 33.0477 9.45255 34.167 10.8333 34.167H21.6666V36.667C21.6666 37.1272 22.0397 37.5004 22.5 37.5004C22.721 37.5003 22.9329 37.4125 23.0891 37.2562L26.1783 34.1671H37.4999C38.8806 34.1671 39.9999 33.0478 39.9999 31.6671V11.6671C39.9999 10.2863 38.8806 9.16699 37.4999 9.16699Z" fill="white"/>
<path d="M29.1666 2.5H2.5C1.1193 2.5 0 3.6193 0 5V25C0 26.3807 1.1193 27.5 2.5 27.5H14.1666V30C14.1666 30.4602 14.5398 30.8334 15 30.8334C15.221 30.8333 15.4329 30.7455 15.5891 30.5892L18.6784 27.5H29.1667C30.5474 27.5 31.6667 26.3807 31.6667 25V5C31.6666 3.6193 30.5473 2.5 29.1666 2.5ZM30 25C30 25.4602 29.6269 25.8334 29.1666 25.8334H18.3334C18.1123 25.8334 17.9005 25.9212 17.7442 26.0775L15.8334 27.9884V26.6667C15.8334 26.2065 15.4602 25.8334 15 25.8334H2.5C2.03977 25.8334 1.66664 25.4602 1.66664 25V5C1.66664 4.53977 2.03977 4.16664 2.5 4.16664H29.1666C29.6269 4.16664 30 4.53977 30 5V25Z" fill="white"/>
<path d="M13.3334 9.16699H4.16675V10.8336H13.3334V9.16699Z" fill="white"/>
<path d="M27.5001 14.167H4.16675V15.8336H27.5001V14.167Z" fill="white"/>
<path d="M27.5001 19.167H4.16675V20.8336H27.5001V19.167Z" fill="white"/>
<path d="M27.4999 9.16699H25.8333V10.8336H27.4999V9.16699Z" fill="white"/>
<path d="M24.1666 9.16699H22.5V10.8336H24.1666V9.16699Z" fill="white"/>
</g>
<defs>
<clipPath id="clip0">
<rect width="40" height="40" fill="white"/>
</clipPath>
</defs>
</svg>
