<?xml version="1.0" standalone="no"?>
<!DOCTYPE svg PUBLIC "-//W3C//DTD SVG 20010904//EN"
 "http://www.w3.org/TR/2001/REC-SVG-20010904/DTD/svg10.dtd">
<svg version="1.0" xmlns="http://www.w3.org/2000/svg"
 width="700.000000pt" height="700.000000pt" viewBox="0 0 700.000000 700.000000"
 preserveAspectRatio="xMidYMid meet">
<metadata>
Created by potrace 1.11, written by Peter Selinger 2001-2013
</metadata>
<g transform="translate(0.000000,700.000000) scale(0.100000,-0.100000)"
fill="#000000" stroke="none">
<path d="M1012 5563 l3 -868 1745 1 c1601 0 1751 2 1817 17 261 61 462 212
586 438 40 73 82 193 93 266 10 65 7 258 -4 313 -54 259 -228 491 -450 600
-115 56 -138 63 -267 89 -32 7 -671 10 -1788 11 l-1737 0 2 -867z"/>
<path d="M2496 4358 c-68 -6 -159 -26 -206 -45 -8 -3 -19 -7 -25 -9 -16 -4
-78 -33 -100 -47 -182 -114 -282 -219 -360 -381 -107 -222 -117 -458 -29 -691
4 -11 7 -23 6 -27 -1 -3 5 -12 13 -18 8 -7 15 -18 15 -25 0 -24 98 -162 158
-222 101 -101 255 -194 362 -218 3 -1 23 -6 45 -12 22 -6 65 -15 95 -19 52 -7
3468 -13 3500 -6 13 3 15 105 15 857 0 469 -4 857 -8 861 -10 10 -3373 12
-3481 2z"/>
<path d="M1028 2280 c-2 -14 -3 -403 -2 -865 l0 -840 1755 0 c964 0 1775 3
1800 8 122 20 290 98 384 178 11 10 29 26 41 36 19 16 61 64 118 133 10 13 36
55 57 94 181 337 119 758 -151 1021 -79 77 -76 75 -135 113 -117 77 -262 128
-395 138 -41 3 -839 7 -1772 8 l-1696 1 -4 -25z"/>
</g>
</svg>
