<svg width="50" height="50" viewBox="0 0 50 50" fill="none" xmlns="http://www.w3.org/2000/svg">
<g clip-path="url(#clip0)">
<path d="M36.4584 49.9993C28.9917 49.9993 22.9167 43.9243 22.9167 36.4577C22.9167 28.991 28.9917 22.916 36.4584 22.916C43.9251 22.916 50.0001 28.991 50.0001 36.4577C50.0001 43.9243 43.9251 49.9993 36.4584 49.9993ZM36.4584 24.9993C30.1397 24.9993 25.0001 30.141 25.0001 36.4577C25.0001 42.7743 30.1397 47.916 36.4584 47.916C42.7772 47.916 47.9167 42.7743 47.9167 36.4577C47.9167 30.141 42.7772 24.9993 36.4584 24.9993Z" fill="#008B1F"/>
<path d="M34.3751 41.6661C34.1001 41.6661 33.8335 41.5557 33.6376 41.3619L29.4709 37.1953C29.0647 36.789 29.0647 36.1286 29.4709 35.7224C29.8772 35.3161 30.5376 35.3161 30.9439 35.7224L34.323 39.1015L40.8814 31.6057C41.2605 31.1703 41.9189 31.1286 42.3522 31.5078C42.7855 31.8869 42.8293 32.5432 42.4501 32.9765L35.1585 41.3099C34.9689 41.5265 34.696 41.6557 34.4085 41.6661C34.398 41.6661 34.3855 41.6661 34.3751 41.6661Z" fill="#008B1F"/>
<path d="M19.7917 43.75H5.20833C2.3375 43.75 0 41.4146 0 38.5417V11.4583C0 8.58542 2.3375 6.25 5.20833 6.25H9.375C9.95 6.25 10.4167 6.71667 10.4167 7.29167C10.4167 7.86667 9.95 8.33333 9.375 8.33333H5.20833C3.48542 8.33333 2.08333 9.73542 2.08333 11.4583V38.5417C2.08333 40.2646 3.48542 41.6667 5.20833 41.6667H19.7917C20.3667 41.6667 20.8333 42.1333 20.8333 42.7083C20.8333 43.2833 20.3667 43.75 19.7917 43.75Z" fill="#008B1F"/>
<path d="M34.375 18.75C33.8 18.75 33.3333 18.2833 33.3333 17.7083V11.4583C33.3333 9.73542 31.9312 8.33333 30.2083 8.33333H26.0417C25.4667 8.33333 25 7.86667 25 7.29167C25 6.71667 25.4667 6.25 26.0417 6.25H30.2083C33.0792 6.25 35.4167 8.58542 35.4167 11.4583V17.7083C35.4167 18.2833 34.95 18.75 34.375 18.75Z" fill="#008B1F"/>
<path d="M23.9583 12.5H11.4583C9.73534 12.5 8.33325 11.0979 8.33325 9.375V5.20833C8.33325 4.63333 8.79992 4.16667 9.37492 4.16667H12.6041C13.0895 1.79167 15.1916 0 17.7083 0C20.2249 0 22.327 1.79167 22.8124 4.16667H26.0416C26.6166 4.16667 27.0833 4.63333 27.0833 5.20833V9.375C27.0833 11.0979 25.6812 12.5 23.9583 12.5ZM10.4166 6.25V9.375C10.4166 9.94792 10.8833 10.4167 11.4583 10.4167H23.9583C24.5333 10.4167 24.9999 9.94792 24.9999 9.375V6.25H21.8749C21.2999 6.25 20.8333 5.78333 20.8333 5.20833C20.8333 3.48542 19.4312 2.08333 17.7083 2.08333C15.9853 2.08333 14.5833 3.48542 14.5833 5.20833C14.5833 5.78333 14.1166 6.25 13.5416 6.25H10.4166Z" fill="#008B1F"/>
<path d="M28.125 18.7493H7.29167C6.71667 18.7493 6.25 18.2827 6.25 17.7077C6.25 17.1327 6.71667 16.666 7.29167 16.666H28.125C28.7 16.666 29.1667 17.1327 29.1667 17.7077C29.1667 18.2827 28.7 18.7493 28.125 18.7493Z" fill="#008B1F"/>
<path d="M21.875 24.9994H7.29167C6.71667 24.9994 6.25 24.5327 6.25 23.9577C6.25 23.3827 6.71667 22.916 7.29167 22.916H21.875C22.45 22.916 22.9167 23.3827 22.9167 23.9577C22.9167 24.5327 22.45 24.9994 21.875 24.9994Z" fill="#008B1F"/>
<path d="M17.7083 31.2493H7.29167C6.71667 31.2493 6.25 30.7827 6.25 30.2077C6.25 29.6327 6.71667 29.166 7.29167 29.166H17.7083C18.2833 29.166 18.75 29.6327 18.75 30.2077C18.75 30.7827 18.2833 31.2493 17.7083 31.2493Z" fill="#008B1F"/>
</g>
<defs>
<clipPath id="clip0">
<rect width="50" height="50" fill="white"/>
</clipPath>
</defs>
</svg>
