<svg width="280" height="25" viewBox="0 0 280 25" fill="none" xmlns="http://www.w3.org/2000/svg">
<line x1="102" y1="15" x2="280" y2="15" stroke="#EBEBEB" stroke-width="4"/>
<line x1="102" y1="15" x2="135" y2="15" stroke="#FFAF38" stroke-width="4"/>
<path d="M52.766 6.752L51.898 6.108C51.072 7.354 49.98 9.244 49.98 12.1C49.98 14.956 51.072 16.86 51.898 18.092L52.766 17.448C52.122 16.426 51.226 14.62 51.226 12.1C51.226 9.58 52.122 7.774 52.766 6.752ZM59.6834 11.708C60.4814 11.232 60.8314 10.462 60.8314 9.664C60.8314 8.208 59.7534 7.032 57.7794 7.032C55.8054 7.032 54.7414 8.208 54.7414 9.664C54.7414 10.462 55.0914 11.232 55.8754 11.708C54.8814 12.198 54.2374 13.094 54.2374 14.214C54.2374 15.964 55.6654 17.182 57.7794 17.182C59.8934 17.182 61.3214 15.964 61.3214 14.214C61.3214 13.094 60.6914 12.198 59.6834 11.708ZM57.7794 8.278C58.8294 8.278 59.4874 8.852 59.4874 9.734C59.4874 10.658 58.7034 11.204 57.7794 11.204C56.8554 11.204 56.0854 10.658 56.0854 9.734C56.0854 8.852 56.7434 8.278 57.7794 8.278ZM57.7794 15.936C56.6034 15.936 55.7074 15.278 55.7074 14.172C55.7074 12.968 56.6734 12.422 57.7794 12.422C58.8994 12.422 59.8514 12.968 59.8514 14.172C59.8514 15.278 58.9694 15.936 57.7794 15.936ZM65.9265 10.672C65.2125 10.672 64.6245 10.924 64.1485 11.274L64.4705 8.474H68.5585V7.2H63.3925L62.7765 12.45L63.8965 12.73C64.1765 12.408 64.8625 11.904 65.8005 11.904C66.9345 11.904 67.7745 12.59 67.7745 13.864C67.7745 15.068 66.9065 15.936 65.7165 15.936C64.4285 15.936 63.8545 15.208 63.7285 14.718L62.4405 15.012C62.6925 16.286 64.0925 17.182 65.7165 17.182C67.8445 17.182 69.1465 15.628 69.1465 13.864C69.1465 12.044 67.8585 10.672 65.9265 10.672ZM71.4893 6.108L70.6213 6.752C71.2653 7.774 72.1613 9.58 72.1613 12.1C72.1613 14.62 71.2653 16.426 70.6213 17.448L71.4893 18.092C72.3153 16.86 73.4073 14.956 73.4073 12.1C73.4073 9.244 72.3153 7.354 71.4893 6.108Z" fill="black" fill-opacity="0.25"/>
<path d="M32 1L34.6942 9.29182H43.4128L36.3593 14.4165L39.0535 22.7083L32 17.5836L24.9466 22.7083L27.6408 14.4165L20.5873 9.29182H29.3059L32 1Z" fill="#FFAF38"/>
<path d="M4.84 17.48C8.08 13.8 9.8 11.9 9.8 9.94C9.8 7.74 8.16 5.76 5.58 5.76C3.22 5.76 1.4 7.04 0.9 9.36L3.44 9.94C3.6 9.12 4.12 8.22 5.36 8.22C6.48 8.22 7.08 9.04 7.08 10.04C7.08 11.26 5.68 12.78 4.46 14.2C3.16 15.68 2.4 16.56 1.08 18.02V20H10V17.48H4.84Z" fill="black" fill-opacity="0.87"/>
</svg>
