<svg width="280" height="25" viewBox="0 0 280 25" fill="none" xmlns="http://www.w3.org/2000/svg">
<line x1="102" y1="14" x2="280" y2="14" stroke="#EBEBEB" stroke-width="4"/>
<line x1="102" y1="14" x2="158" y2="14" stroke="#FFAF38" stroke-width="4"/>
<path d="M52.766 7.752L51.898 7.108C51.072 8.354 49.98 10.244 49.98 13.1C49.98 15.956 51.072 17.86 51.898 19.092L52.766 18.448C52.122 17.426 51.226 15.62 51.226 13.1C51.226 10.58 52.122 8.774 52.766 7.752ZM59.1794 12.82C60.0054 12.4 60.4814 11.644 60.4814 10.72C60.4814 9.194 59.3754 8.032 57.5414 8.032C56.1694 8.032 54.8954 8.844 54.5454 10.146L55.8334 10.426C55.9874 9.88 56.4914 9.278 57.5414 9.278C58.6614 9.278 59.1794 10.034 59.1794 10.832C59.1794 12.036 58.2834 12.386 57.4434 12.386H56.6174V13.562H57.4434C58.2834 13.562 59.5434 13.814 59.5434 15.102C59.5434 16.32 58.7314 16.936 57.5414 16.936C56.2394 16.936 55.6514 16.222 55.5394 15.732L54.2374 16.026C54.4754 17.286 55.9174 18.182 57.5414 18.182C59.6694 18.182 60.9294 16.88 60.9294 15.102C60.9294 14.01 60.2994 13.212 59.1794 12.82ZM64.007 16.74C66.443 13.814 67.899 12.47 67.899 10.916C67.899 9.306 66.723 8.032 65.127 8.032C63.601 8.032 62.369 8.872 61.991 10.454L63.293 10.762C63.433 10.104 63.909 9.278 64.987 9.278C65.981 9.278 66.513 9.964 66.513 10.916C66.513 11.924 65.239 13.31 64.147 14.584C63.195 15.704 62.817 16.138 62.005 17.034V18H68.039V16.74H64.007ZM72.2949 8.2L69.2989 10.216L69.9289 11.238L71.7909 9.992V18H73.1909V8.2H72.2949ZM76.7256 7.108L75.8576 7.752C76.5016 8.774 77.3976 10.58 77.3976 13.1C77.3976 15.62 76.5016 17.426 75.8576 18.448L76.7256 19.092C77.5516 17.86 78.6436 15.956 78.6436 13.1C78.6436 10.244 77.5516 8.354 76.7256 7.108Z" fill="black" fill-opacity="0.25"/>
<path d="M32 1L34.6942 9.29182H43.4128L36.3593 14.4165L39.0535 22.7083L32 17.5836L24.9466 22.7083L27.6408 14.4165L20.5873 9.29182H29.3059L32 1Z" fill="#FFAF38"/>
<path d="M11.82 14.9H10.16V6H6.58L0.9 15.08V17.22H7.44V20H10.16V17.22H11.82V14.9ZM3.66 14.9L7.44 8.84V14.9H3.66Z" fill="black" fill-opacity="0.87"/>
</svg>
