<svg width="280" height="25" viewBox="0 0 280 25" fill="none" xmlns="http://www.w3.org/2000/svg">
<line x1="102" y1="15" x2="280" y2="15" stroke="#EBEBEB" stroke-width="4"/>
<line x1="102" y1="15" x2="149" y2="15" stroke="#FFAF38" stroke-width="4"/>
<path d="M52.766 6.752L51.898 6.108C51.072 7.354 49.98 9.244 49.98 12.1C49.98 14.956 51.072 16.86 51.898 18.092L52.766 17.448C52.122 16.426 51.226 14.62 51.226 12.1C51.226 9.58 52.122 7.774 52.766 6.752ZM57.0234 7.2L54.0274 9.216L54.6574 10.238L56.5194 8.992V17H57.9194V7.2H57.0234ZM63.5467 10.532C63.3367 10.532 63.1267 10.56 62.9587 10.602L65.3807 7.2H63.7987L61.1947 10.98C60.8447 11.512 60.1027 12.492 60.1027 13.864C60.1027 15.628 61.4187 17.182 63.5467 17.182C65.6887 17.182 66.9907 15.628 66.9907 13.864C66.9907 11.862 65.4507 10.532 63.5467 10.532ZM63.5467 15.936C62.3847 15.936 61.4747 15.068 61.4747 13.864C61.4747 12.618 62.3707 11.778 63.5467 11.778C64.6527 11.778 65.6187 12.576 65.6187 13.864C65.6187 15.068 64.7227 15.936 63.5467 15.936ZM72.0731 7.032C69.2591 7.032 68.2511 9.636 68.2511 12.1C68.2511 14.564 69.2591 17.182 72.0731 17.182C74.8871 17.182 75.8951 14.564 75.8951 12.1C75.8951 9.636 74.8871 7.032 72.0731 7.032ZM72.0731 15.866C70.1971 15.866 69.6511 13.78 69.6511 12.1C69.6511 10.42 70.1971 8.334 72.0731 8.334C73.9491 8.334 74.4951 10.42 74.4951 12.1C74.4951 13.78 73.9491 15.866 72.0731 15.866ZM78.2295 6.108L77.3615 6.752C78.0055 7.774 78.9015 9.58 78.9015 12.1C78.9015 14.62 78.0055 16.426 77.3615 17.448L78.2295 18.092C79.0555 16.86 80.1475 14.956 80.1475 12.1C80.1475 9.244 79.0555 7.354 78.2295 6.108Z" fill="black" fill-opacity="0.25"/>
<path d="M32 1L34.6942 9.29182H43.4128L36.3593 14.4165L39.0535 22.7083L32 17.5836L24.9466 22.7083L27.6408 14.4165L20.5873 9.29182H29.3059L32 1Z" fill="#FFAF38"/>
<path d="M8.2 12.76C9.58 12.14 10.24 11.02 10.24 9.6C10.24 7.42 8.54 5.76 5.66 5.76C3.46 5.76 1.72 7.06 1.16 8.94L3.64 9.52C3.86 8.84 4.46 8.18 5.66 8.18C6.88 8.18 7.64 8.8 7.64 9.94C7.64 11.32 6.42 11.68 5.36 11.68H4.18V13.98H5.36C6.34 13.98 7.82 14.18 7.82 15.76C7.82 16.84 7.18 17.8 5.62 17.8C4.02 17.8 3.34 17.06 3.2 16.44L0.6 17.04C0.96 18.92 3.04 20.26 5.62 20.26C8.78 20.26 10.58 18.38 10.58 16.04C10.58 14.34 9.72 13.28 8.2 12.76Z" fill="black" fill-opacity="0.87"/>
</svg>
