<svg width="280" height="25" viewBox="0 0 280 25" fill="none" xmlns="http://www.w3.org/2000/svg">
<line x1="102" y1="15" x2="280" y2="15" stroke="#EBEBEB" stroke-width="4"/>
<line x1="102" y1="15" x2="135" y2="15" stroke="#FFAF38" stroke-width="4"/>
<path d="M52.766 6.752L51.898 6.108C51.072 7.354 49.98 9.244 49.98 12.1C49.98 14.956 51.072 16.86 51.898 18.092L52.766 17.448C52.122 16.426 51.226 14.62 51.226 12.1C51.226 9.58 52.122 7.774 52.766 6.752ZM54.3074 7.2V8.474H58.8154L55.4274 17H56.8414L60.2994 8.264V7.2H54.3074ZM67.9608 13.556H66.6868V7.2H64.6848L60.5828 13.682V14.802H65.2868V17H66.6868V14.802H67.9608V13.556ZM62.1228 13.556L65.2868 8.572V13.556H62.1228ZM70.3682 6.108L69.5002 6.752C70.1442 7.774 71.0402 9.58 71.0402 12.1C71.0402 14.62 70.1442 16.426 69.5002 17.448L70.3682 18.092C71.1942 16.86 72.2862 14.956 72.2862 12.1C72.2862 9.244 71.1942 7.354 70.3682 6.108Z" fill="black" fill-opacity="0.25"/>
<path d="M32 1L34.6942 9.29182H43.4128L36.3593 14.4165L39.0535 22.7083L32 17.5836L24.9466 22.7083L27.6408 14.4165L20.5873 9.29182H29.3059L32 1Z" fill="#FFAF38"/>
<path d="M4.82 6L0.5 8.92L1.66 10.82L4.12 9.16V20H6.84V6H4.82Z" fill="black" fill-opacity="0.87"/>
</svg>
