<svg width="120" height="30" viewBox="0 0 120 30" fill="none" xmlns="http://www.w3.org/2000/svg">
<path d="M12.245 25.4082C12.2066 25.3062 12.1934 25.2195 12.2064 25.1493C12.2194 25.0796 12.1748 25.0219 12.0726 24.9774C11.9704 24.9329 11.9194 24.8976 11.9194 24.8724C11.9194 24.8469 11.8462 24.8277 11.6993 24.8151C11.5526 24.8023 11.4793 24.7958 11.4793 24.7958H11.2307H11.0203H5.51008C4.66826 24.7958 3.94754 24.4963 3.34797 23.8964C2.74854 23.2969 2.44886 22.5764 2.44886 21.7347V8.26518C2.44886 7.42337 2.74847 6.70291 3.34797 6.10341C3.94754 5.50384 4.66826 5.20396 5.51008 5.20396H11.6325C11.7983 5.20396 11.9287 5.16281 12.0246 5.07972C12.1201 4.99682 12.1838 4.87238 12.2158 4.70659C12.2477 4.5408 12.2669 4.39109 12.2734 4.25713C12.2797 4.12331 12.2766 3.95417 12.2637 3.75011C12.2511 3.54612 12.2447 3.4186 12.2447 3.36733C12.2447 3.20154 12.184 3.05834 12.063 2.93691C11.9417 2.81602 11.7983 2.75537 11.6325 2.75537H5.51008C3.99237 2.75537 2.69446 3.29429 1.61656 4.37206C0.538919 5.44983 0 6.74754 0 8.26538V21.7346C0 23.2523 0.538919 24.5504 1.61656 25.6277C2.69446 26.706 3.99237 27.245 5.51008 27.245H11.6327C11.7986 27.245 11.9291 27.2033 12.0249 27.1207C12.1204 27.0377 12.184 26.9134 12.2161 26.7474C12.248 26.5818 12.2672 26.4313 12.2736 26.2979C12.2799 26.164 12.2769 25.9952 12.264 25.7911C12.2512 25.5868 12.245 25.4594 12.245 25.4082Z" fill="#BE1E2D"/>
<path d="M29.6363 14.1391L19.2282 3.73067C18.986 3.48862 18.699 3.36719 18.3673 3.36719C18.0357 3.36719 17.7486 3.48862 17.5061 3.73067C17.2637 3.97305 17.1426 4.26034 17.1426 4.59178V10.102H8.57128C8.23943 10.102 7.95254 10.2234 7.71016 10.4655C7.46777 10.7079 7.34668 10.9949 7.34668 11.3266V18.6736C7.34668 19.0052 7.46777 19.2923 7.71016 19.5346C7.95281 19.7765 8.23963 19.8982 8.57128 19.8982H17.1427V25.4084C17.1427 25.7398 17.2638 26.0271 17.5062 26.2693C17.7486 26.5117 18.0357 26.633 18.3674 26.633C18.699 26.633 18.986 26.5117 19.2283 26.2693L29.6363 15.8614C29.8787 15.6188 29.9998 15.3321 29.9998 15.0004C29.9998 14.6688 29.8787 14.3815 29.6363 14.1391Z" fill="#BE1E2D"/>
<path d="M12.245 25.4082C12.2066 25.3062 12.1934 25.2195 12.2064 25.1493C12.2194 25.0796 12.1748 25.0219 12.0726 24.9774C11.9704 24.9329 11.9194 24.8976 11.9194 24.8724C11.9194 24.8469 11.8462 24.8277 11.6993 24.8151C11.5526 24.8023 11.4793 24.7958 11.4793 24.7958H11.2307H11.0203H5.51008C4.66826 24.7958 3.94754 24.4963 3.34797 23.8964C2.74854 23.2969 2.44886 22.5764 2.44886 21.7347V8.26518C2.44886 7.42337 2.74847 6.70291 3.34797 6.10341C3.94754 5.50384 4.66826 5.20396 5.51008 5.20396H11.6325C11.7983 5.20396 11.9287 5.16281 12.0246 5.07972C12.1201 4.99682 12.1838 4.87238 12.2158 4.70659C12.2477 4.5408 12.2669 4.39109 12.2734 4.25713C12.2797 4.12331 12.2766 3.95417 12.2637 3.75011C12.2511 3.54612 12.2447 3.4186 12.2447 3.36733C12.2447 3.20154 12.184 3.05834 12.063 2.93691C11.9417 2.81602 11.7983 2.75537 11.6325 2.75537H5.51008C3.99237 2.75537 2.69446 3.29429 1.61656 4.37206C0.538919 5.44983 0 6.74754 0 8.26538V21.7346C0 23.2523 0.538919 24.5504 1.61656 25.6277C2.69446 26.706 3.99237 27.245 5.51008 27.245H11.6327C11.7986 27.245 11.9291 27.2033 12.0249 27.1207C12.1204 27.0377 12.184 26.9134 12.2161 26.7474C12.248 26.5818 12.2672 26.4313 12.2736 26.2979C12.2799 26.164 12.2769 25.9952 12.264 25.7911C12.2512 25.5868 12.245 25.4594 12.245 25.4082Z" fill="#BE1E2D"/>
<path d="M29.6363 14.1391L19.2282 3.73067C18.986 3.48862 18.699 3.36719 18.3673 3.36719C18.0357 3.36719 17.7486 3.48862 17.5061 3.73067C17.2637 3.97305 17.1426 4.26034 17.1426 4.59178V10.102H8.57128C8.23943 10.102 7.95254 10.2234 7.71016 10.4655C7.46777 10.7079 7.34668 10.9949 7.34668 11.3266V18.6736C7.34668 19.0052 7.46777 19.2923 7.71016 19.5346C7.95281 19.7765 8.23963 19.8982 8.57128 19.8982H17.1427V25.4084C17.1427 25.7398 17.2638 26.0271 17.5062 26.2693C17.7486 26.5117 18.0357 26.633 18.3674 26.633C18.699 26.633 18.986 26.5117 19.2283 26.2693L29.6363 15.8614C29.8787 15.6188 29.9998 15.3321 29.9998 15.0004C29.9998 14.6688 29.8787 14.3815 29.6363 14.1391Z" fill="#BE1E2D"/>
<path d="M44.519 20.362V9.4H42.719V22H49.703V20.362H44.519ZM57.2903 9.184C53.5463 9.184 50.8823 12.01 50.8823 15.7C50.8823 19.39 53.5463 22.234 57.2903 22.234C61.0163 22.234 63.6803 19.39 63.6803 15.7C63.6803 12.01 61.0163 9.184 57.2903 9.184ZM57.2903 20.542C54.3563 20.542 52.7183 18.148 52.7183 15.7C52.7183 13.252 54.3563 10.858 57.2903 10.858C60.2243 10.858 61.8623 13.252 61.8623 15.7C61.8623 18.148 60.2243 20.542 57.2903 20.542ZM71.8663 15.196V16.834H76.0603C75.7723 18.904 74.3323 20.542 71.7043 20.542C68.7523 20.542 67.1323 18.148 67.1323 15.7C67.1323 13.252 68.7523 10.858 71.7043 10.858C73.2343 10.858 74.4223 11.524 75.1963 12.496L76.7083 11.506C75.5563 10.066 73.7923 9.184 71.7043 9.184C67.9603 9.184 65.2963 12.01 65.2963 15.7C65.2963 19.39 67.9603 22.234 71.7043 22.234C73.8463 22.234 75.3043 21.37 76.1683 19.948L76.3303 22H77.4823V15.196H71.8663ZM90.636 9.184C86.892 9.184 84.228 12.01 84.228 15.7C84.228 19.39 86.892 22.234 90.636 22.234C94.362 22.234 97.026 19.39 97.026 15.7C97.026 12.01 94.362 9.184 90.636 9.184ZM90.636 20.542C87.702 20.542 86.064 18.148 86.064 15.7C86.064 13.252 87.702 10.858 90.636 10.858C93.57 10.858 95.208 13.252 95.208 15.7C95.208 18.148 93.57 20.542 90.636 20.542ZM106.85 9.4V16.888C106.85 19.588 105.68 20.524 103.88 20.524C102.062 20.524 100.892 19.588 100.892 16.888V9.4H99.092V17.212C99.092 20.488 100.802 22.234 103.88 22.234C106.94 22.234 108.668 20.488 108.668 17.212V9.4H106.85ZM118.818 9.4H110.646V11.038H113.832V22H115.632V11.038H118.818V9.4Z" fill="#BE1E2D"/>
<path d="M44.519 20.362V9.4H42.719V22H49.703V20.362H44.519ZM57.2903 9.184C53.5463 9.184 50.8823 12.01 50.8823 15.7C50.8823 19.39 53.5463 22.234 57.2903 22.234C61.0163 22.234 63.6803 19.39 63.6803 15.7C63.6803 12.01 61.0163 9.184 57.2903 9.184ZM57.2903 20.542C54.3563 20.542 52.7183 18.148 52.7183 15.7C52.7183 13.252 54.3563 10.858 57.2903 10.858C60.2243 10.858 61.8623 13.252 61.8623 15.7C61.8623 18.148 60.2243 20.542 57.2903 20.542ZM71.8663 15.196V16.834H76.0603C75.7723 18.904 74.3323 20.542 71.7043 20.542C68.7523 20.542 67.1323 18.148 67.1323 15.7C67.1323 13.252 68.7523 10.858 71.7043 10.858C73.2343 10.858 74.4223 11.524 75.1963 12.496L76.7083 11.506C75.5563 10.066 73.7923 9.184 71.7043 9.184C67.9603 9.184 65.2963 12.01 65.2963 15.7C65.2963 19.39 67.9603 22.234 71.7043 22.234C73.8463 22.234 75.3043 21.37 76.1683 19.948L76.3303 22H77.4823V15.196H71.8663ZM90.636 9.184C86.892 9.184 84.228 12.01 84.228 15.7C84.228 19.39 86.892 22.234 90.636 22.234C94.362 22.234 97.026 19.39 97.026 15.7C97.026 12.01 94.362 9.184 90.636 9.184ZM90.636 20.542C87.702 20.542 86.064 18.148 86.064 15.7C86.064 13.252 87.702 10.858 90.636 10.858C93.57 10.858 95.208 13.252 95.208 15.7C95.208 18.148 93.57 20.542 90.636 20.542ZM106.85 9.4V16.888C106.85 19.588 105.68 20.524 103.88 20.524C102.062 20.524 100.892 19.588 100.892 16.888V9.4H99.092V17.212C99.092 20.488 100.802 22.234 103.88 22.234C106.94 22.234 108.668 20.488 108.668 17.212V9.4H106.85ZM118.818 9.4H110.646V11.038H113.832V22H115.632V11.038H118.818V9.4Z" fill="#BE1E2D"/>
</svg>
