<svg width="34" height="34" viewBox="0 0 34 34" fill="none" xmlns="http://www.w3.org/2000/svg">
<path d="M16.9999 0.333008C7.79992 0.333008 0.333252 7.79967 0.333252 16.9997C0.333252 26.1997 7.79992 33.6663 16.9999 33.6663C26.1999 33.6663 33.6666 26.1997 33.6666 16.9997C33.6666 7.79967 26.1999 0.333008 16.9999 0.333008ZM16.9999 5.33301C19.7666 5.33301 21.9999 7.56634 21.9999 10.333C21.9999 13.0997 19.7666 15.333 16.9999 15.333C14.2333 15.333 11.9999 13.0997 11.9999 10.333C11.9999 7.56634 14.2333 5.33301 16.9999 5.33301ZM16.9999 28.9997C12.8333 28.9997 9.14992 26.8663 6.99992 23.633C7.04992 20.3163 13.6666 18.4997 16.9999 18.4997C20.3166 18.4997 26.9499 20.3163 26.9999 23.633C24.8499 26.8663 21.1666 28.9997 16.9999 28.9997Z" fill="black" fill-opacity="0.67"/>
</svg>
