<svg width="27" height="29" viewBox="0 0 27 29" fill="none" xmlns="http://www.w3.org/2000/svg">
<path d="M12.5 29C14.2246 29 15.6236 27.6011 15.6236 25.875H9.3765C9.3765 27.6011 10.7754 29 12.5 29ZM23.0171 21.6899C22.0738 20.6763 20.3086 19.1514 20.3086 14.1562C20.3086 10.3623 17.6485 7.3252 14.0616 6.58008V5.5625C14.0616 4.69971 13.3623 4 12.5 4C11.6377 4 10.9385 4.69971 10.9385 5.5625V6.58008C7.3516 7.3252 4.69144 10.3623 4.69144 14.1562C4.69144 19.1514 2.9263 20.6763 1.98294 21.6899C1.68998 22.0049 1.56009 22.3813 1.56253 22.75C1.5679 23.5508 2.19632 24.3125 3.12992 24.3125H21.8702C22.8037 24.3125 23.4327 23.5508 23.4375 22.75C23.44 22.3813 23.3101 22.0044 23.0171 21.6899Z" fill="#C5C7CD"/>
<circle cx="20.3125" cy="7.125" r="5.4375" fill="#FFAF38" stroke="#FFAF38" stroke-width="1.5"/>
</svg>
