<svg width="40" height="40" viewBox="0 0 40 40" fill="none" xmlns="http://www.w3.org/2000/svg">
<path d="M26.6667 6.6665H30.0001C30.8841 6.6665 31.732 7.01769 32.3571 7.64281C32.9822 8.26794 33.3334 9.11578 33.3334 9.99984V33.3332C33.3334 34.2172 32.9822 35.0651 32.3571 35.6902C31.732 36.3153 30.8841 36.6665 30.0001 36.6665H10.0001C9.11603 36.6665 8.26818 36.3153 7.64306 35.6902C7.01794 35.0651 6.66675 34.2172 6.66675 33.3332V9.99984C6.66675 9.11578 7.01794 8.26794 7.64306 7.64281C8.26818 7.01769 9.11603 6.6665 10.0001 6.6665H13.3334" stroke="#590A5B" stroke-width="2" stroke-linecap="round" stroke-linejoin="round"/>
<path d="M24.9999 3.3335H14.9999C14.0794 3.3335 13.3333 4.07969 13.3333 5.00016V8.3335C13.3333 9.25397 14.0794 10.0002 14.9999 10.0002H24.9999C25.9204 10.0002 26.6666 9.25397 26.6666 8.3335V5.00016C26.6666 4.07969 25.9204 3.3335 24.9999 3.3335Z" stroke="#590A5B" stroke-width="2" stroke-linecap="round" stroke-linejoin="round"/>
<path d="M12.8871 18H13.8225C14.0595 18 14.2868 17.9215 14.4544 17.7819C14.6219 17.6422 14.7161 17.4528 14.7161 17.2553C14.7161 17.0578 14.6219 16.8684 14.4544 16.7288C14.2868 16.5891 14.0595 16.5106 13.8225 16.5106H13.7872V14.4894H16.252C16.3081 14.6391 16.4215 14.7694 16.575 14.8602C16.7284 14.951 16.9134 14.9974 17.1015 14.9922C17.3388 14.9928 17.5667 14.9148 17.7351 14.7756C17.9036 14.6363 17.9988 14.447 18 14.2493V13.7482C17.998 13.5495 17.902 13.3595 17.7329 13.2194C17.5637 13.0793 17.3351 13.0005 17.0967 13H12.8871C12.7699 13.0005 12.6539 13.0203 12.5459 13.0581C12.4378 13.096 12.3398 13.1513 12.2574 13.2208C12.175 13.2903 12.1099 13.3726 12.0657 13.4631C12.0215 13.5536 11.9992 13.6505 12 13.7482V17.2562C11.9993 17.3536 12.0217 17.4502 12.066 17.5405C12.1103 17.6307 12.1755 17.7127 12.2579 17.7818C12.3404 17.851 12.4384 17.9058 12.5464 17.9433C12.6544 17.9807 12.7702 18 12.8871 18Z" fill="#590A5B"/>
<path d="M12.8936 26H17.1064C17.3434 26 17.5707 25.9215 17.7383 25.7819C17.9058 25.6422 18 25.4528 18 25.2553V21.7447C18 21.5472 17.9058 21.3578 17.7383 21.2181C17.5707 21.0785 17.3434 21 17.1064 21H12.8936C12.6566 21 12.4293 21.0785 12.2617 21.2181C12.0941 21.3578 12 21.5472 12 21.7447V25.2553C12 25.4528 12.0941 25.6422 12.2617 25.7819C12.4293 25.9215 12.6566 26 12.8936 26ZM13.7872 22.4894H16.2128V24.5106H13.7872V22.4894Z" fill="#590A5B"/>
<path d="M13.8226 32.2125H13.7873V29.7871H16.2037C16.2083 30.0221 16.3049 30.2459 16.4726 30.4106C16.6403 30.5752 16.8659 30.6675 17.101 30.6678C17.336 30.668 17.5618 30.5761 17.7299 30.4118C17.8979 30.2475 17.9949 30.0239 18 29.7889V28.9279C17.9991 28.6863 17.9044 28.4545 17.7359 28.2814C17.5673 28.1083 17.3382 28.0074 17.0967 28H12.8872C12.6474 28.0081 12.4202 28.1097 12.2544 28.2831C12.0886 28.4565 11.9973 28.688 12.0001 28.9279V33.1372C11.9999 33.2526 12.023 33.3668 12.0678 33.4731C12.1127 33.5794 12.1784 33.6756 12.2612 33.7561C12.3439 33.8365 12.4419 33.8995 12.5495 33.9413C12.657 33.9832 12.7718 34.003 12.8872 33.9996H13.8226C14.0596 33.9996 14.2869 33.9055 14.4545 33.7379C14.6221 33.5703 14.7162 33.3431 14.7162 33.1061C14.7162 32.8691 14.6221 32.6418 14.4545 32.4742C14.2869 32.3067 14.0596 32.2125 13.8226 32.2125Z" fill="#590A5B"/>
<path d="M18.5837 14.2082L16.1548 16.2866L15.4159 15.6543C15.3389 15.5884 15.2475 15.5361 15.1468 15.5004C15.0462 15.4647 14.9384 15.4464 14.8294 15.4464C14.7205 15.4464 14.6127 15.4647 14.512 15.5004C14.4114 15.5361 14.32 15.5884 14.2429 15.6543C14.1659 15.7202 14.1048 15.7984 14.0631 15.8845C14.0215 15.9706 14 16.0629 14 16.1561C14 16.2493 14.0215 16.3416 14.0631 16.4277C14.1048 16.5138 14.1659 16.5921 14.2429 16.658L15.5684 17.7921C15.6454 17.858 15.7369 17.9103 15.8375 17.946C15.9381 17.9816 16.046 18 16.1549 18C16.2638 18 16.3717 17.9816 16.4723 17.946C16.573 17.9103 16.6644 17.858 16.7414 17.7921L19.7571 15.2116C19.9126 15.0785 20 14.898 20 14.7097C20 14.5215 19.9126 14.341 19.7571 14.2079C19.6015 14.0748 19.3905 14 19.1706 14C18.9506 14 18.7396 14.0748 18.5841 14.2079L18.5837 14.2082Z" fill="#590A5B"/>
<path d="M18.5837 29.2602L16.1548 31.8583L15.4159 31.0678C15.3389 30.9854 15.2475 30.9201 15.1468 30.8755C15.0462 30.8309 14.9384 30.808 14.8294 30.808C14.7205 30.808 14.6127 30.8309 14.512 30.8755C14.4114 30.9201 14.32 30.9854 14.2429 31.0678C14.1659 31.1502 14.1048 31.248 14.0631 31.3557C14.0215 31.4633 14 31.5787 14 31.6952C14 31.8117 14.0215 31.927 14.0631 32.0347C14.1048 32.1423 14.1659 32.2401 14.2429 32.3225L15.5684 33.7401C15.6454 33.8225 15.7369 33.8879 15.8375 33.9325C15.9381 33.977 16.046 34 16.1549 34C16.2638 34 16.3717 33.977 16.4723 33.9325C16.573 33.8879 16.6644 33.8225 16.7414 33.7401L19.7571 30.5145C19.9126 30.3481 20 30.1225 20 29.8872C20 29.6519 19.9126 29.4262 19.7571 29.2599C19.6015 29.0935 19.3905 29 19.1706 29C18.9506 29 18.7396 29.0935 18.5841 29.2599L18.5837 29.2602Z" fill="#590A5B"/>
<path d="M27.1547 15H21.8453C21.6211 15 21.4061 15.1054 21.2476 15.2929C21.0891 15.4804 21 15.7348 21 16C21 16.2652 21.0891 16.5196 21.2476 16.7071C21.4061 16.8946 21.6211 17 21.8453 17H27.1547C27.3789 17 27.5939 16.8946 27.7524 16.7071C27.9109 16.5196 28 16.2652 28 16C28 15.7348 27.9109 15.4804 27.7524 15.2929C27.5939 15.1054 27.3789 15 27.1547 15Z" fill="#590A5B"/>
<path d="M27.1547 23H21.8453C21.6211 23 21.4061 23.0527 21.2476 23.1464C21.0891 23.2402 21 23.3674 21 23.5C21 23.6326 21.0891 23.7598 21.2476 23.8536C21.4061 23.9473 21.6211 24 21.8453 24H27.1547C27.3789 24 27.5939 23.9473 27.7524 23.8536C27.9109 23.7598 28 23.6326 28 23.5C28 23.3674 27.9109 23.2402 27.7524 23.1464C27.5939 23.0527 27.3789 23 27.1547 23Z" fill="#590A5B"/>
<path d="M27.1547 30H21.8453C21.6211 30 21.4061 30.1054 21.2476 30.2929C21.0891 30.4804 21 30.7348 21 31C21 31.2652 21.0891 31.5196 21.2476 31.7071C21.4061 31.8946 21.6211 32 21.8453 32H27.1547C27.3789 32 27.5939 31.8946 27.7524 31.7071C27.9109 31.5196 28 31.2652 28 31C28 30.7348 27.9109 30.4804 27.7524 30.2929C27.5939 30.1054 27.3789 30 27.1547 30Z" fill="#590A5B"/>
</svg>
