<svg width="280" height="25" viewBox="0 0 280 25" fill="none" xmlns="http://www.w3.org/2000/svg">
<line x1="102" y1="14" x2="280" y2="14" stroke="#EBEBEB" stroke-width="4"/>
<line x1="102" y1="14" x2="195" y2="14" stroke="#FFAF38" stroke-width="4"/>
<path d="M52.766 7.752L51.898 7.108C51.072 8.354 49.98 10.244 49.98 13.1C49.98 15.956 51.072 17.86 51.898 19.092L52.766 18.448C52.122 17.426 51.226 15.62 51.226 13.1C51.226 10.58 52.122 8.774 52.766 7.752ZM57.7234 11.672C57.0094 11.672 56.4214 11.924 55.9454 12.274L56.2674 9.474H60.3554V8.2H55.1894L54.5734 13.45L55.6934 13.73C55.9734 13.408 56.6594 12.904 57.5974 12.904C58.7314 12.904 59.5714 13.59 59.5714 14.864C59.5714 16.068 58.7034 16.936 57.5134 16.936C56.2254 16.936 55.6514 16.208 55.5254 15.718L54.2374 16.012C54.4894 17.286 55.8894 18.182 57.5134 18.182C59.6414 18.182 60.9434 16.628 60.9434 14.864C60.9434 13.044 59.6554 11.672 57.7234 11.672ZM69.3827 14.556H68.1087V8.2H66.1067L62.0047 14.682V15.802H66.7087V18H68.1087V15.802H69.3827V14.556ZM63.5447 14.556L66.7087 9.572V14.556H63.5447ZM77.8866 14.556H76.6126V8.2H74.6106L70.5086 14.682V15.802H75.2126V18H76.6126V15.802H77.8866V14.556ZM72.0486 14.556L75.2126 9.572V14.556H72.0486ZM80.2939 7.108L79.4259 7.752C80.0699 8.774 80.9659 10.58 80.9659 13.1C80.9659 15.62 80.0699 17.426 79.4259 18.448L80.2939 19.092C81.1199 17.86 82.2119 15.956 82.2119 13.1C82.2119 10.244 81.1199 8.354 80.2939 7.108Z" fill="black" fill-opacity="0.25"/>
<path d="M32 1L34.6942 9.29182H43.4128L36.3593 14.4165L39.0535 22.7083L32 17.5836L24.9466 22.7083L27.6408 14.4165L20.5873 9.29182H29.3059L32 1Z" fill="#FFAF38"/>
<path d="M6.14 10.96C5.32 10.96 4.52 11.22 3.86 11.6L4.22 8.52H9.72V6H2.16L1.28 13.56L3.36 14.16C3.72 13.74 4.6 13.18 5.64 13.18C7.04 13.18 7.94 14.08 7.94 15.4C7.94 16.62 7.26 17.8 5.62 17.8C4.2 17.8 3.58 17.06 3.42 16.44L0.8 17.04C1.14 18.86 3.26 20.26 5.62 20.26C8.82 20.26 10.6 17.96 10.6 15.36C10.6 12.78 8.82 10.96 6.14 10.96Z" fill="black" fill-opacity="0.87"/>
</svg>
