<svg width="22" height="22" viewBox="0 0 22 22" fill="none" xmlns="http://www.w3.org/2000/svg">
<path d="M11.2111 9.50278H21.0865C21.1955 10.1112 21.25 10.6924 21.25 11.2463C21.25 13.2168 20.8368 14.9763 20.0105 16.5245C19.1841 18.0728 18.0059 19.2828 16.4757 20.1546C14.9456 21.0264 13.1908 21.4622 11.2111 21.4622C9.78544 21.4622 8.42785 21.1876 7.13837 20.6382C5.84889 20.0888 4.73649 19.3464 3.80116 18.4111C2.86584 17.4758 2.12348 16.3634 1.57409 15.0739C1.0247 13.7844 0.75 12.4268 0.75 11.0011C0.75 9.57543 1.0247 8.21784 1.57409 6.92836C2.12348 5.63889 2.86584 4.52648 3.80116 3.59116C4.73649 2.65583 5.84889 1.91347 7.13837 1.36408C8.42785 0.814689 9.78544 0.539993 11.2111 0.539993C13.9354 0.539993 16.2737 1.45262 18.2261 3.27787L15.3792 6.01574C14.2623 4.93512 12.8729 4.39481 11.2111 4.39481C10.0397 4.39481 8.95681 4.68994 7.96246 5.28019C6.96811 5.87045 6.18034 6.67183 5.59917 7.68434C5.018 8.69686 4.72741 9.80245 4.72741 11.0011C4.72741 12.1998 5.018 13.3054 5.59917 14.3179C6.18034 15.3304 6.96811 16.1318 7.96246 16.722C8.95681 17.3123 10.0397 17.6074 11.2111 17.6074C12.0012 17.6074 12.7276 17.4985 13.3905 17.2805C14.0534 17.0626 14.5983 16.7902 15.0251 16.4632C15.4519 16.1363 15.8242 15.764 16.142 15.3463C16.4599 14.9286 16.6937 14.5336 16.8435 14.1613C16.9934 13.7889 17.0955 13.4348 17.15 13.0988H11.2111V9.50278Z" fill="#E63737"/>
</svg>
