<svg width="57" height="63" viewBox="0 0 57 63" fill="none" xmlns="http://www.w3.org/2000/svg">
<path d="M50.6667 6.2426H37.43C36.1 2.6328 32.6167 0.0187988 28.5 0.0187988C24.3833 0.0187988 20.9 2.6328 19.57 6.2426H6.33333C2.85 6.2426 0 9.04331 0 12.4664V56.033C0 59.4561 2.85 62.2568 6.33333 62.2568H50.6667C54.15 62.2568 57 59.4561 57 56.033V12.4664C57 9.04331 54.15 6.2426 50.6667 6.2426ZM28.5 6.2426C30.2417 6.2426 31.6667 7.64295 31.6667 9.3545C31.6667 11.066 30.2417 12.4664 28.5 12.4664C26.7583 12.4664 25.3333 11.066 25.3333 9.3545C25.3333 7.64295 26.7583 6.2426 28.5 6.2426ZM34.8333 49.8092H12.6667V43.5854H34.8333V49.8092ZM44.3333 37.3616H12.6667V31.1378H44.3333V37.3616ZM44.3333 24.914H12.6667V18.6902H44.3333V24.914Z" fill="#590A5B"/>
</svg>
