<svg width="34" height="34" viewBox="0 0 34 34" fill="none" xmlns="http://www.w3.org/2000/svg">
<path d="M16.9987 0.333374C7.7987 0.333374 0.332031 7.80004 0.332031 17C0.332031 26.2 7.7987 33.6667 16.9987 33.6667C26.1987 33.6667 33.6654 26.2 33.6654 17C33.6654 7.80004 26.1987 0.333374 16.9987 0.333374ZM16.9987 5.33337C19.7654 5.33337 21.9987 7.56671 21.9987 10.3334C21.9987 13.1 19.7654 15.3334 16.9987 15.3334C14.232 15.3334 11.9987 13.1 11.9987 10.3334C11.9987 7.56671 14.232 5.33337 16.9987 5.33337ZM16.9987 29C12.832 29 9.1487 26.8667 6.9987 23.6334C7.0487 20.3167 13.6654 18.5 16.9987 18.5C20.3154 18.5 26.9487 20.3167 26.9987 23.6334C24.8487 26.8667 21.1654 29 16.9987 29Z" fill="#FFAF38"/>
</svg>
