<svg width="40" height="37" viewBox="0 0 40 37" fill="none" xmlns="http://www.w3.org/2000/svg">
<path d="M11.1736 26.2363H12.446H34.1408C34.665 26.2363 35.1269 25.8679 35.2766 25.3305L39.9507 8.5435C40.0575 8.15994 39.9886 7.74496 39.765 7.42407C39.5413 7.10319 39.1891 6.91416 38.815 6.91416H8.65541L7.06072 1.18667C6.91111 0.649357 6.44915 0.281006 5.92493 0.281006H1.18508C0.530626 0.280922 0 0.848407 0 1.54851C0 2.24852 0.530626 2.81609 1.18508 2.81609H5.04142L6.62853 8.51609C6.63337 8.53489 6.63845 8.55353 6.64408 8.57191L10.8602 23.7139C8.45361 23.8871 6.54478 26.0352 6.54478 28.6524C6.54478 31.3824 8.62127 33.6035 11.1735 33.6035H12.35C12.8642 35.4889 14.4935 36.871 16.4201 36.871C18.3466 36.871 19.9761 35.489 20.4902 33.6035H26.7779C27.292 35.4889 28.9214 36.871 30.848 36.871C32.7744 36.871 34.4039 35.489 34.918 33.6035H36.4448C37.0993 33.6035 37.6299 33.0359 37.6299 32.3359C37.6299 31.6359 37.0993 31.0683 36.4448 31.0683H34.918C34.4039 29.1828 32.7745 27.8008 30.848 27.8008C28.9214 27.8008 27.2919 29.1828 26.7779 31.0683H20.4902C19.9761 29.1828 18.3467 27.8008 16.4201 27.8008C14.4935 27.8008 12.8641 29.1828 12.35 31.0683H11.1735C9.92807 31.0683 8.91486 29.9845 8.91486 28.6523C8.91486 27.3201 9.92815 26.2363 11.1736 26.2363ZM28.5583 9.44917H37.2256L35.5944 15.3076H28.5583V9.44917ZM28.5583 17.8428H34.8884L33.2573 23.7012H28.5583V17.8428ZM19.7894 9.44917H26.1883V15.3076H19.7894V9.44917ZM19.7893 17.8428H26.1882V23.7012H19.7893V17.8428ZM17.4194 23.7012H13.3296L11.6985 17.8428H17.4194V23.7012ZM9.36142 9.44917H17.4193V15.3076H10.9926L9.36142 9.44917ZM30.848 30.3359C31.879 30.3359 32.7178 31.233 32.7178 32.3358C32.7178 33.4386 31.879 34.3358 30.848 34.3358C29.817 34.3358 28.9783 33.4386 28.9783 32.3358C28.9783 31.233 29.817 30.3359 30.848 30.3359ZM16.4202 30.3359C17.4512 30.3359 18.29 31.233 18.29 32.3358C18.29 33.4386 17.4512 34.3358 16.4202 34.3358C15.3892 34.3358 14.5504 33.4386 14.5504 32.3358C14.5504 31.233 15.3892 30.3359 16.4202 30.3359Z" fill="#590A5B"/>
</svg>
